<?xml version="1.0" encoding="UTF-8" standalone="no"?>
<!-- Created with Inkscape (http://www.inkscape.org/) -->

<svg
   xmlns:dc="http://purl.org/dc/elements/1.1/"
   xmlns:cc="http://creativecommons.org/ns#"
   xmlns:rdf="http://www.w3.org/1999/02/22-rdf-syntax-ns#"
   xmlns:svg="http://www.w3.org/2000/svg"
   xmlns="http://www.w3.org/2000/svg"
   xmlns:sodipodi="http://sodipodi.sourceforge.net/DTD/sodipodi-0.dtd"
   xmlns:inkscape="http://www.inkscape.org/namespaces/inkscape"
   width="2000"
   height="550"
   viewBox="0 0 529.16666 145.52083"
   version="1.1"
   id="svg8"
   inkscape:version="0.92.1 r15371"
   sodipodi:docname="logo.svg"
   inkscape:export-filename="C:\Users\andre.guilherme\Pictures\svg\IATEC Docs.png"
   inkscape:export-xdpi="96"
   inkscape:export-ydpi="96">
  <defs
     id="defs2">
    <clipPath
       id="clipPath4534"
       clipPathUnits="userSpaceOnUse">
      <rect
         y="129.36855"
         x="38.166084"
         height="28.437479"
         width="26.566589"
         id="rect4536"
         style="fill:#ffffff;fill-opacity:1;stroke:#b5b5b5;stroke-width:0.465;stroke-miterlimit:4;stroke-dasharray:none;stroke-opacity:1" />
    </clipPath>
    <clipPath
       id="clipPath4534-6"
       clipPathUnits="userSpaceOnUse">
      <rect
         y="129.36855"
         x="38.166084"
         height="28.437479"
         width="26.566589"
         id="rect4536-6"
         style="fill:#ffffff;fill-opacity:1;stroke:#b5b5b5;stroke-width:0.465;stroke-miterlimit:4;stroke-dasharray:none;stroke-opacity:1" />
    </clipPath>
  </defs>
  <sodipodi:namedview
     id="base"
     pagecolor="#ffffff"
     bordercolor="#666666"
     borderopacity="1.0"
     inkscape:pageopacity="0.0"
     inkscape:pageshadow="2"
     inkscape:zoom="0.49497475"
     inkscape:cx="1099.6468"
     inkscape:cy="163.57536"
     inkscape:document-units="px"
     inkscape:current-layer="g5323"
     showgrid="false"
     fit-margin-top="0"
     fit-margin-left="0"
     fit-margin-right="0"
     fit-margin-bottom="0"
     showguides="true"
     inkscape:guide-bbox="true"
     inkscape:window-width="1920"
     inkscape:window-height="1017"
     inkscape:window-x="1912"
     inkscape:window-y="-8"
     inkscape:window-maximized="1"
     units="px">
    <sodipodi:guide
       position="511.50032,39.871258"
       orientation="1,0"
       id="guide4649"
       inkscape:locked="false" />
  </sodipodi:namedview>
  <metadata
     id="metadata5">
    <rdf:RDF>
      <cc:Work
         rdf:about="">
        <dc:format>image/svg+xml</dc:format>
        <dc:type
           rdf:resource="http://purl.org/dc/dcmitype/StillImage" />
        <dc:title></dc:title>
      </cc:Work>
    </rdf:RDF>
  </metadata>
  <g
     inkscape:label="Layer 1"
     inkscape:groupmode="layer"
     id="layer1"
     transform="translate(98.273819,-57.741077)" />
  <g
     inkscape:groupmode="layer"
     id="layer2"
     inkscape:label="Layer 2"
     transform="translate(0,39.687489)">
    <path
       id="path4643-1"
       style="fill:#fafafa;fill-opacity:1;stroke-width:0.20223069"
       d="m 75.916179,45.648492 h -0.102746 v -0.100393 -0.101177 h 0.102746 0.101961 v 0.101177 0.100393 z m -4.752583,-1.546364 -1.718836,1.715149 -1.050125,-0.842751 -1.049968,-0.842751 -0.01569,-0.116079 -0.01569,-0.11608 1.101812,-1.501736 1.101576,-1.501814 0.286277,-0.396082 0.284708,-0.395297 0.485493,0.319218 0.485494,0.319218 0.910046,0.821575 0.910281,0.821653 z m 0.57569,4.368109 -0.07059,-0.01569 -0.881419,-1.101655 -0.881418,-1.101733 1.686836,-1.620012 1.686522,-1.620168 0.204707,0.06274 0.204707,0.06275 0.960713,1.188243 0.960556,1.188166 -0.0047,0.112157 -0.0055,0.112158 -1.895857,1.364951 -1.89617,1.365108 -0.07059,-0.01569 z m 15.968977,2.087623 -2.160408,0.715299 -0.741182,-1.851543 -0.740397,-1.851307 -0.1851,-0.225884 -0.185883,-0.225884 0.255688,-0.197648 0.255688,-0.196864 1.893347,-0.959615 1.893347,-0.959615 0.188236,0.188237 0.188237,0.188237 0.888241,2.205662 0.88832,2.205977 -0.13804,0.125491 -0.13804,0.126275 z m -13.95806,0.745887 -0.264316,-0.01569 -0.670593,-1.154989 -0.670593,-1.155459 0.367061,-0.2651 0.367062,-0.264315 1.501736,-1.101577 1.501579,-1.101655 h 0.149805 0.149805 l 0.827143,1.309343 0.826987,1.309735 -0.0031,0.258825 -0.0031,0.25961 -1.907543,0.960791 -1.907543,0.960321 -0.264315,-0.01569 z m 1.516246,3.243396 h -0.243924 l -0.394512,-0.891928 -0.394513,-0.892163 -0.124707,-0.390591 -0.124706,-0.389807 2.116877,-1.086674 2.116957,-1.086831 0.07059,0.09255 0.07059,0.09333 0.655691,1.494599 0.655691,1.494677 -0.163139,0.149021 -0.163922,0.149805 -1.921583,0.631377 -1.92166,0.630593 z m 12.061576,1.706522 -0.517651,0.08863 -0.48471,-2.060093 -0.485493,-2.060407 -0.01569,-0.185099 -0.01569,-0.185099 2.079544,-0.693339 2.079544,-0.692554 0.255688,0.09726 0.255689,0.09725 0.559219,2.370213 0.558436,2.370449 -0.08392,0.08392 -0.08392,0.08471 -1.798052,0.297257 -1.798052,0.298826 -0.51765,0.08941 z m -5.151017,0.823222 -0.816006,0.12 -0.363924,-1.577658 -0.363925,-1.57758 -0.710593,-1.921425 -0.710593,-1.921112 -0.720005,-1.314519 -0.72079,-1.314441 -1.002125,-1.516716 -1.001811,-1.516795 -2.593116,-2.555313 -2.59296,-2.555783 1.353186,-1.840013 1.353187,-1.839934 0.210197,-0.0029 0.209413,-0.0031 1.812327,1.581502 1.81217,1.581658 1.441108,1.704718 1.441344,1.704561 1.117655,1.720169 1.11789,1.720091 0.896477,1.919935 0.896634,1.920328 0.63373,1.920954 0.636083,1.921347 0.318433,1.394285 0.318434,1.394284 -0.163139,0.141962 -0.162354,0.141962 -1.415853,0.224315 -1.415461,0.224316 -0.816163,0.120785 z m -6.008514,0.908084 h -0.277649 l -0.314512,-1.318989 -0.314512,-1.318912 0.197649,-0.120785 0.196864,-0.120785 2.103309,-0.659613 2.103466,-0.658828 0.293335,1.038988 0.293336,1.039145 0.127844,0.73177 0.127844,0.730201 -2.12778,0.330983 -2.127858,0.331767 z m 13.524332,3.596104 -2.359703,0.0549 -0.08235,-0.261179 -0.08157,-0.261178 -0.109805,-2.072877 -0.10902,-2.073035 h 0.07059 0.07059 l 1.589502,-0.292551 1.589658,-0.291767 0.709025,-0.06274 0.709809,-0.06275 0.130981,0.910046 0.130981,0.910203 0.04706,1.718835 0.04706,1.718993 z m -5.462627,0.04706 H 81.86775 l -0.08157,-0.253336 -0.08157,-0.25255 -0.120785,-1.65562 -0.120785,-1.655384 0.964242,-0.135688 0.964242,-0.135687 1.371539,-0.250982 1.371775,-0.251766 0.106667,0.170197 0.105099,0.170197 0.120001,2.124564 0.12,2.124486 z m -5.606079,-0.04706 -2.346527,0.0549 -0.126275,-1.34801 -0.126276,-1.348245 0.0902,-0.147452 0.0902,-0.145883 2.23578,-0.359218 2.235467,-0.359219 0.110589,0.111374 0.109805,0.111373 0.03137,1.68613 0.03137,1.686443 z m -63.581865,0.21412 -0.08863,0.08863 -0.223531,-0.584318 -0.223531,-0.584318 -0.43216,-1.719071 -0.431375,-1.718679 -0.01569,-4.449051 -0.01569,-4.449287 0.364708,-1.794914 0.364709,-1.795072 0.70824,-2.350762 0.709025,-2.350605 0.940556,-2.123387 0.940791,-2.123467 0.892163,-1.512873 0.892242,-1.512717 0.817574,-1.217185 0.817575,-1.217499 1.322362,-1.718992 1.322284,-1.718914 1.824876,-2.123388 1.824954,-2.123466 5.572902,-5.66255 5.573295,-5.662315 4.239873,-4.3480308 4.240109,-4.3477956 5.578784,-5.6624717 5.57902,-5.6623931 2.433351,-2.5280968 2.433194,-2.527782 2.84402,-3.134611 2.843706,-3.134453 1.542051,-1.921426 1.542442,-1.92119 1.081968,-1.637737 1.081969,-1.637737 0.527847,-1.044557 0.529415,-1.044321 0.585887,-1.766758 0.585102,-1.767071 0.243923,-1.617737 0.243924,-1.617815 0.127059,-0.301963 0.12706,-0.301963 0.06275,6.875892 0.06274,6.875657 -0.24157,1.415774 -0.240786,1.415775 -0.605495,1.718601 -0.60471,1.719149 -0.70824,1.405814 -0.709025,1.4055 -0.978046,1.577423 -0.978203,1.577266 -1.405186,1.8942097 -1.405265,1.8941311 -1.877425,2.2009569 -1.877582,2.2009568 -5.574707,5.5821573 -5.574863,5.5827063 -5.156742,5.2456059 -5.157135,5.245841 -3.943401,4.046382 -3.943557,4.04646 -2.745196,2.820569 -2.745275,2.820334 -2.369663,2.604646 -2.370056,2.604489 -1.726679,2.147858 -1.726758,2.148016 -1.519618,2.293741 -1.519776,2.293429 -0.884477,1.766836 -0.884477,1.766914 -0.701181,2.107309 -0.701182,2.107937 -0.31059,1.527226 -0.309806,1.527227 -0.214904,1.900327 -0.214904,1.900327 z m 65.693095,3.862145 -0.167844,0.144314 -2.199545,-0.359218 -2.199467,-0.359218 -0.08471,-0.08392 -0.08471,-0.08471 0.136472,-1.340166 0.136471,-1.339617 h 2.427861 2.427546 l -0.111373,1.640482 -0.112942,1.640717 z m 5.217841,1.005732 -0.323924,-0.01569 -1.970602,-0.352159 -1.97021,-0.35216 -0.09412,-0.09412 -0.09412,-0.09412 0.124707,-1.759385 0.123923,-1.759699 h 2.396723 2.396722 v 0.98134 0.981576 l -0.130197,1.24291 -0.130197,1.243303 -0.325492,-0.01569 z m 5.36694,0.802202 -0.432944,-0.02353 -1.997191,-0.31216 -1.996955,-0.312943 0.126275,-1.209107 0.12706,-1.208949 v -1.082518 -1.082753 h 2.426763 2.426919 l 0.01569,0.353728 0.01569,0.352944 -0.01569,0.709025 -0.01569,0.70824 -0.120001,1.567305 -0.120001,1.567149 z m -16.678628,0.651769 -0.134903,0.12157 -2.224408,-0.734123 -2.224565,-0.734907 0.03137,-0.20157 0.03137,-0.20157 0.346669,-1.710208 0.346669,-1.710444 -0.12706,-1.825268 -0.127844,-1.825111 -0.276864,-1.155459 -0.276081,-1.155538 2.14629,-0.714515 2.146054,-0.716083 h 0.157649 0.157648 l 0.20157,0.5302 0.202354,0.529415 0.320787,2.148486 0.320786,2.148486 -0.108236,1.921347 -0.107451,1.920955 -0.335689,1.617894 -0.336473,1.617894 z m 5.012349,1.73366 -0.294904,0.03922 -2.000955,-0.690201 -2.000799,-0.690985 -0.04706,-0.04706 -0.04706,-0.04706 0.304316,-1.213499 0.304316,-1.213263 0.131765,-0.139609 0.131766,-0.140393 2.223937,0.355297 2.22433,0.355296 0.04706,0.292551 0.04706,0.290983 -0.364708,1.41452 -0.365493,1.414284 z m -6.401065,1.470206 -0.162354,-0.01569 -1.971857,-1.002752 -1.971622,-1.002674 v -0.14353 -0.142747 l 0.320787,-0.845182 0.321571,-0.845026 2.154446,0.713731 2.154761,0.71373 0.161569,0.146668 0.162355,0.146668 -0.506671,1.142047 -0.50667,1.142048 -0.162354,-0.01569 z m 11.562357,0.152158 -0.398434,0.03922 -1.811778,-0.598435 -1.811934,-0.598436 -0.143531,-0.151374 -0.14353,-0.151373 0.46118,-1.718993 0.459611,-1.718914 0.485493,0.0549 0.485494,0.0549 1.810209,0.29961 1.810287,0.29961 0.07059,0.07059 0.07059,0.07059 -0.472945,1.993034 -0.474513,1.992798 z m 5.409293,1.861817 -0.146667,-0.01569 -2.110761,-0.692554 -2.110838,-0.694122 -0.08392,-0.08471 -0.08471,-0.08471 0.311375,-0.973576 0.311375,-0.973811 0.23059,-1.16291 0.23059,-1.162832 0.440787,7.06e-4 0.440787,6.28e-4 1.820013,0.315296 1.820249,0.315296 0.14353,0.139609 0.14353,0.138825 -0.294119,1.409108 -0.293336,1.409265 -0.309806,1.065576 -0.309806,1.06589 -0.146668,-0.01569 z m -12.018673,0.61726 -0.0549,-0.01569 -1.918131,-1.008085 -1.91821,-1.007929 -0.151373,-0.151374 -0.151374,-0.151373 0.472945,-1.161734 0.473728,-1.161734 0.105884,-0.106667 0.104314,-0.105099 2.258604,0.730201 2.258291,0.730202 -0.135687,0.430591 -0.135688,0.431376 -0.571768,1.275224 -0.572554,1.27499 -0.0549,-0.01569 z m -5.875101,-0.644711 -0.658044,1.045655 -1.224087,-0.852634 -1.224322,-0.85279 -0.765496,-0.614122 -0.763143,-0.613338 0.473729,-0.74275 0.475298,-0.742751 0.156079,-0.01569 0.155295,-0.01569 2.018525,1.012948 2.018602,1.01287 v 0.159217 0.159217 l -0.658828,1.045419 z m 10.785253,3.073748 -0.116079,-0.01569 -2.007309,-1.053733 -2.007229,-1.054282 -0.01569,-0.123922 -0.01569,-0.123923 0.684711,-1.619384 0.68471,-1.619384 2.247938,0.72628 2.24778,0.727064 0.0549,0.03137 0.0549,0.03137 -0.424317,1.08793 -0.424316,1.088086 -0.429023,0.960634 -0.429023,0.960556 -0.115295,-0.01569 z m -13.643705,0.411767 h -0.232943 l -1.596011,-1.605501 -1.595933,-1.605345 0.550592,-0.719221 0.550593,-0.720005 h 0.198432 0.199217 l 1.812876,1.330598 1.813111,1.330676 v 0.101961 0.101178 l -0.733339,0.893653 -0.733338,0.893418 z m 6.505772,0.590593 -0.25961,-0.01569 -1.516716,-1.108164 -1.516717,-1.108008 -0.250198,-0.246277 -0.249413,-0.246276 0.601573,-0.906987 0.603141,-0.90683 7.84e-4,-0.253335 6.28e-4,-0.253335 h 0.219609 0.21961 l 2.005269,1.030047 2.00472,1.029968 -0.0016,0.234511 -0.0016,0.232943 -0.801418,1.263852 -0.801417,1.264088 -0.258826,-0.01569 z m 12.023458,1.429892 -0.147452,-0.0031 -1.820091,-0.931536 -1.820013,-0.931615 -0.174119,-0.161569 -0.173335,-0.16157 0.767849,-1.886759 0.767064,-1.886601 0.150589,-0.173335 0.15059,-0.173334 2.232251,0.744319 2.232408,0.744319 -0.589024,1.597423 -0.589024,1.597501 -0.416473,0.816006 -0.415689,0.816163 -0.147452,-0.0031 z m -20.062339,-0.426669 -1.006281,0.848241 -1.226362,-1.653894 -1.226518,-1.654287 -0.192159,-0.359218 -0.192942,-0.359218 0.772554,-0.610985 0.772555,-0.611769 1.652953,1.661737 1.653188,1.661659 v 0.11608 0.116079 z m 13.245506,1.482363 -0.636867,0.952399 -1.706522,-1.220872 -1.706365,-1.220243 -0.27059,-0.155296 -0.271375,-0.154511 0.850203,-1.397578 0.850358,-1.397814 0.174119,-0.218825 0.174119,-0.218041 1.469893,0.741966 1.469736,0.741966 0.670593,0.349022 0.669024,0.349807 -0.551376,0.949026 -0.552945,0.948948 z m -7.768055,0.919693 -0.129413,0.04706 -1.692482,-1.701189 -1.692404,-1.701423 0.886829,-1.029576 0.886909,-1.030047 0.148236,-1.57e-4 0.149021,-7.8e-5 1.823856,1.333499 1.823856,1.333735 -0.0016,0.131766 -0.0016,0.13255 -1.034282,1.213342 -1.034361,1.213185 -0.130981,0.04706 z m -8.442491,-0.264316 -0.836477,0.511376 -0.20157,-0.250982 -0.202354,-0.250982 -0.945576,-1.891778 -0.945889,-1.891778 0.06275,-0.04706 0.06274,-0.04706 0.636868,-0.440787 0.638436,-0.440787 h 0.217256 0.217256 l 1.16746,1.63656 1.167302,1.636326 0.20157,0.294119 0.202355,0.293336 -0.301963,0.18353 -0.301963,0.184315 z m -21.187288,0.461964 -0.04706,0.04706 -1.098518,-0.656475 -1.098204,-0.655691 v -0.119216 -0.118433 l 1.304166,-1.850758 1.30401,-1.850601 h 0.188236 0.188237 l 0.67922,0.421964 0.68079,0.421963 v 0.207845 0.20706 l -1.028714,1.949426 -1.02887,1.94919 z m 17.363574,1.266676 h -0.259609 l -0.723927,-2.164721 -0.725495,-2.164565 0.150589,-0.152158 0.151373,-0.151373 0.754516,-0.314512 0.755299,-0.314512 1.062439,2.074603 1.06236,2.074603 0.0549,0.121569 0.0549,0.12157 -1.04487,0.433728 -1.045027,0.433729 z m -14.450377,-0.01569 -0.301963,-0.0031 -0.960713,-0.424316 -0.960634,-0.424317 v -0.1851 -0.185883 l 1.030988,-1.961897 1.030752,-1.961896 0.0549,-0.0549 0.0549,-0.0549 0.783535,0.356081 0.783535,0.356081 0.08628,0.0549 0.08628,0.0549 -0.691769,2.220486 -0.692554,2.220487 -0.301963,-0.0031 z m 11.476474,0.903535 -0.556867,0.125491 -0.0047,-0.04706 -0.0055,-0.04706 -0.383532,-2.325585 -0.383532,-2.325664 0.06274,-0.06275 0.06275,-0.06275 0.851535,-0.192158 0.851143,-0.192158 0.09098,0.09098 0.09176,0.09177 0.690201,2.078054 0.690985,2.078525 v 0.156079 0.155296 l -0.757652,0.190589 -0.756084,0.19059 -0.556867,0.126275 z m -8.125548,0.104315 -0.217257,-0.01569 -1.101419,-0.294904 -1.101498,-0.294119 -0.04706,-0.04706 -0.04706,-0.04706 0.716868,-2.215388 0.717652,-2.215231 0.08157,-0.08235 0.08157,-0.08157 0.934203,0.263531 0.934124,0.263531 -0.106668,0.625887 -0.108236,0.625103 -0.250982,1.769581 -0.250982,1.769424 -0.216472,-0.01569 z m 20.873874,-0.160001 -0.751378,0.598435 -1.447148,-1.950759 -1.447147,-1.950759 0.984399,-0.882359 0.984399,-0.882359 0.20706,-0.01569 0.207061,-0.01569 1.604482,1.613894 1.604168,1.613815 -0.597651,0.629809 -0.598436,0.629808 -0.751378,0.598436 z m -15.292501,0.376473 -1.280088,0.101177 -0.08549,-0.08549 -0.08549,-0.08549 v -2.37288 -2.372566 l 0.925183,-0.07059 0.924869,-0.07059 0.160001,0.203923 0.160786,0.204707 0.280786,2.022367 0.278433,2.022289 v 0.20157 0.202355 z m -2.20833,0.163138 -0.152942,-0.03922 -1.162675,-0.07059 -1.163067,-0.07059 v -0.428238 -0.427454 l 0.210198,-1.331226 0.210197,-1.331068 0.101962,-0.656475 0.101961,-0.656475 h 1.002125 1.001811 v 2.527782 2.527861 z m -32.475446,0.242355 h -0.27059 L 19.952408,83.142562 19.226913,82.417067 18.520241,81.070234 17.81357,79.723557 17.298272,78.105585 16.783758,76.487848 16.436305,74.6676 l -0.346669,-1.819935 -0.0016,-3.539005 -0.0016,-3.539006 0.520003,-2.224643 0.520004,-2.224643 0.748241,-2.022132 0.747456,-2.022289 1.218597,-2.325742 1.218754,-2.325585 1.483932,-2.224722 1.483853,-2.224251 1.431461,-1.798758 1.431462,-1.798601 1.653972,-1.942759 1.654208,-1.94268 6.579733,-6.665695 6.579968,-6.665459 6.167966,-6.248672 6.168044,-6.248672 0.609416,-0.635298 0.6102,-0.635299 2.828648,-2.93304 2.828647,-2.9328056 1.314363,-1.4214219 1.314519,-1.4216572 1.449735,-1.611384 1.449736,-1.6112271 1.437422,-1.71914949 1.437501,-1.71891421 1.385108,-2.0222104 1.385343,-2.0223673 0.71373,-1.4155395 0.714515,-1.4155395 0.337257,-1.0113013 0.338042,-1.0111445 0.385885,-1.820013 0.385885,-1.82017 0.0031,-0.556866 0.0031,-0.556867 h 0.202354 0.20157 v 6.8387936 6.8387153 l -0.21255,1.20008697 -0.212551,1.19985167 -0.514513,1.61773696 -0.514514,1.6178154 -0.996713,1.9850338 -0.996713,1.9849552 -1.445422,2.1607211 -1.445422,2.1608 -1.464324,1.820327 -1.464559,1.819777 -1.358049,1.516795 -1.358049,1.516717 -9.73552,9.808226 -9.735285,9.808305 -6.278241,6.471262 -6.27824,6.47134 -1.534364,1.654836 -1.534599,1.654756 -1.789896,2.250291 -1.790365,2.25029 -1.374912,2.060878 -1.374676,2.060642 -1.195852,2.426762 -1.195616,2.426763 -0.600005,1.842444 -0.59922,1.842288 -0.24706,1.680796 -0.246276,1.680796 0.119216,2.240565 0.119217,2.24033 0.400787,1.367461 0.400003,1.367696 0.315296,0.636082 0.316081,0.635299 v 0.07059 0.07059 z m 64.563596,-0.547455 -0.547455,0.757653 -1.927072,-1.420873 -1.927465,-1.420638 1.134047,-1.866288 1.133812,-1.866209 0.07059,-0.08941 0.07059,-0.0902 2.034916,1.000321 2.03523,1.000085 0.09255,0.15059 0.09255,0.150589 -0.85632,1.468952 -0.856398,1.468559 z m -8.239902,1.364167 h -0.146667 l -1.562678,-1.571541 -1.562521,-1.571854 0.0016,-0.198433 0.0016,-0.196864 1.034204,-1.21342 1.033968,-1.213499 0.165491,-0.06275 0.164707,-0.06274 1.830837,1.343852 1.831072,1.343931 -0.0016,0.134119 -0.0016,0.134119 -1.322284,1.567226 -1.322127,1.567384 h -0.147453 z m -2.906844,2.711784 -0.949811,0.756084 -1.426363,-1.92323 -1.426676,-1.923072 v -0.07059 -0.07059 l 1.434363,-1.179773 1.434049,-1.179695 1.599227,1.589737 1.599149,1.589815 v 0.217257 0.217256 l -0.656475,0.614122 -0.655691,0.611769 z m 6.716048,1.130674 H 80.96845 l -1.562521,-1.57154 -1.562678,-1.571933 v -0.210197 -0.209414 l 0.621965,-0.595298 0.621966,-0.592945 0.735691,-0.960635 0.734907,-0.960399 h 0.188237 0.188237 l 1.792797,1.334676 1.792875,1.334755 v 0.145883 0.146668 l -0.74275,0.895928 -0.742751,0.896085 -0.918438,0.960477 -0.918516,0.960635 z m -26.296658,0.488631 -2.524018,0.09255 -1.415853,-0.177256 -1.415618,-0.178041 -1.79562,-0.41961 -1.795699,-0.418827 -2.077819,-0.812006 -2.077819,-0.812084 -1.626992,-0.977889 -1.62707,-0.977654 -1.274284,-1.016556 -1.274048,-1.016949 -0.489415,-0.523925 -0.489415,-0.523141 0.09098,-0.04706 0.09098,-0.04706 1.628325,-1.579071 1.628482,-1.57907 1.904798,1.440873 1.904563,1.440717 2.224486,1.085027 2.224643,1.08487 1.820248,0.46667 1.819935,0.46667 3.741281,0.0016 3.741204,0.0016 1.688874,-0.46118 1.688953,-0.462749 1.243539,-0.502748 1.243381,-0.505102 1.591149,-0.922203 1.59107,-0.922202 0.160001,0.168629 0.159217,0.167844 1.231616,1.669502 1.231617,1.669737 v 0.154511 0.152942 l -1.038203,0.679221 -1.037969,0.678436 -1.865503,0.883693 -1.865347,0.883614 -1.281813,0.409414 -1.281891,0.409415 -1.935779,0.393728 -1.936092,0.394513 -2.523939,0.09333 z m 14.367632,1.736719 H 68.948443 L 67.935495,88.733268 66.922468,86.714587 V 86.53341 86.353801 l 0.614122,-0.254904 0.614122,-0.254904 0.798123,-0.578043 0.798986,-0.578828 h 0.164707 0.165492 l 1.261499,1.730287 1.26142,1.729973 0.09255,0.242355 0.09255,0.243923 -0.457258,0.290982 -0.457259,0.290983 -1.260479,0.770201 -1.259931,0.770202 z m 7.441857,1.809973 -0.06275,-0.01569 -1.390363,-1.945739 -1.390362,-1.945583 0.58118,-0.414121 0.581181,-0.41412 1.172008,-1.107067 1.172244,-1.107067 1.75162,1.751464 1.751777,1.751777 -0.901575,0.826516 -0.901732,0.826672 -1.14738,0.899301 -1.147538,0.899536 -0.06275,-0.01569 z m -12.054517,0.216472 -0.261179,-0.0031 -0.08628,-0.252551 -0.08549,-0.253335 -0.635298,-1.986524 -0.63373,-1.986681 0.07059,-0.06274 0.07059,-0.06275 1.314519,-0.545886 1.314284,-0.544318 0.343532,-0.105883 0.341963,-0.107451 1.023302,2.038916 1.023223,2.039309 v 0.163138 0.163139 l -1.769503,0.752946 -1.769581,0.752947 -0.261179,-0.0031 z m -4.728975,1.324951 -0.336473,0.101961 -0.09412,-0.159216 -0.0949,-0.160002 -0.341179,-2.19225 -0.341963,-2.19233 0.128628,-0.128628 0.128629,-0.128628 1.15091,-0.238433 1.151067,-0.237649 0.539611,-0.13804 0.538828,-0.138041 0.734123,2.266918 0.733338,2.267075 -0.100393,0.09883 -0.09882,0.09961 -1.678914,0.388238 -1.678835,0.387454 z m -3.404416,0.389807 -1.921269,0.137256 -0.152158,-0.154511 -0.152158,-0.154511 v -2.263075 -2.263232 l 1.242989,-0.130197 1.243146,-0.130197 h 0.653338 0.654123 l 0.346669,2.24629 0.345885,2.246762 -0.169413,0.161569 -0.169413,0.16157 z m -3.791792,0.07059 -0.960556,-0.03137 -1.147224,-0.122354 -1.147067,-0.122354 -0.12706,-0.12706 -0.127844,-0.127059 0.315297,-1.893896 0.31608,-1.894131 0.09098,-0.410199 0.0902,-0.409415 1.827229,0.185099 1.827621,0.185884 v 2.397821 2.397742 z m 19.01841,1.040871 h -0.163139 l -1.009733,-1.943779 -1.009967,-1.943857 -0.06275,-0.168629 -0.06275,-0.168628 0.862203,-0.440003 0.86228,-0.440788 1.079224,-0.716868 1.079223,-0.716868 0.169413,0.1851 0.169413,0.184315 1.238519,1.685973 1.238518,1.685894 -0.0016,0.133334 -0.0016,0.133335 -1.463697,0.939928 -1.463383,0.93985 -0.647848,0.323139 -0.647847,0.323924 h -0.163068 z m -38.444666,0.988871 -0.138824,-0.01569 -0.909968,-0.175688 -0.910045,-0.174903 -1.415618,-0.700397 -1.41554,-0.700397 -1.089419,-1.073812 -1.089498,-1.07389 -0.85334,-1.314519 -0.853182,-1.314441 -0.519219,-1.31444 -0.51922,-1.314676 -0.363924,-1.718836 -0.363924,-1.718993 7.84e-4,-2.831235 7.06e-4,-2.831158 0.262747,-1.516795 0.262747,-1.516795 0.6102,-2.02221 0.610985,-2.022368 0.777261,-1.666129 0.776476,-1.666679 1.0924,-1.670365 1.092792,-1.670286 1.252793,-1.571776 1.253342,-1.571776 1.038753,-1.158361 1.038438,-1.158361 13.058446,-13.219937 13.058603,-13.220173 0.372551,-0.431375 0.373336,-0.430591 1.954916,-2.024956 1.954916,-2.024799 1.833817,-2.019779 1.833895,-2.0197 0.799849,-0.910046 0.799692,-0.910046 0.909026,-1.112321 0.908791,-1.112165 0.836947,-1.112322 0.837183,-1.112321 0.994281,-1.617737 0.994282,-1.617894 0.643142,-1.555854 0.643141,-1.555698 0.388239,-1.6799333 0.389022,-1.6798551 0.136471,-1.0805567 0.136472,-1.0806351 0.19608,0.1960798 0.196864,0.1960798 -0.08549,7.2543266 -0.08628,7.254247 -0.343532,1.311068 -0.343532,1.311068 -0.705103,1.76017 -0.704318,1.760483 -0.945262,1.681031 -0.945419,1.681189 -1.406912,2.022367 -1.406911,2.022211 -1.937661,2.325585 -1.937504,2.325663 -1.519148,1.616639 -1.519305,1.616875 -5.763571,5.788747 -5.763492,5.788825 -4.453678,4.52615 -4.453601,4.525914 -3.241199,3.336887 -3.241513,3.336886 -1.182989,1.49358 -1.18291,1.493265 -1.223774,1.944406 -1.223616,1.94472 -0.871379,1.976877 -0.8713,1.97719 -0.527063,1.966445 -0.526278,1.966367 -0.09412,2.325585 -0.0949,2.325664 0.327061,1.394755 0.327061,1.394834 0.607848,1.140478 0.608631,1.140636 0.84181,0.8673 0.842124,0.867379 0.778045,0.396081 0.778829,0.396866 -0.120786,0.194511 -0.12,0.194511 -0.138825,-0.01569 z m 32.963529,1.437971 H 65.9965 l -0.676867,-2.072877 -0.676868,-2.073113 -0.08549,-0.227453 -0.08628,-0.228236 0.56471,-0.141962 0.563926,-0.141962 1.492638,-0.690201 1.492795,-0.689417 0.164707,0.101177 0.163138,0.102746 1.040792,2.037505 1.041027,2.037505 -0.06275,0.04706 -0.06275,0.04706 -1.011066,0.46667 -1.011066,0.465886 -1.268715,0.480003 -1.26848,0.479219 z m -4.940349,1.323618 -0.958125,0.136471 -0.09098,-0.27608 -0.09098,-0.276081 -0.3051,-2.015936 -0.3051,-2.015935 0.07059,-0.07059 0.07059,-0.07059 1.993269,-0.493337 1.993505,-0.494121 0.227452,0.08628 0.228237,0.08706 0.631377,2.006053 0.631377,2.006367 v 0.202355 0.202354 l -1.567227,0.423532 -1.567383,0.423533 z m -7.53527,0.669807 -2.831314,-0.0157 -2.004092,-0.274507 -2.00425,-0.272943 -2.353585,-0.607847 -2.353664,-0.608632 -1.911308,-0.727064 -1.911386,-0.728633 -2.070054,-1.093655 -2.070289,-1.094282 -1.15695,-0.764711 -1.157106,-0.764712 0.04706,-0.20157 0.04706,-0.202354 1.260401,-1.764013 1.260244,-1.763934 0.145099,-0.0047 0.146668,-0.0047 1.437265,0.929733 1.4375,0.929888 2.05727,0.972243 2.057269,0.972399 1.617973,0.533337 1.617893,0.533337 1.718836,0.381964 1.719306,0.381963 1.963701,0.215688 1.963622,0.217256 1.676325,-0.01569 1.676561,-0.01569 1.516638,-0.174118 1.516717,-0.173335 0.03922,0.03922 0.03922,0.03922 0.395297,2.320801 0.395297,2.320957 -0.07059,0.07059 -0.07059,0.07059 -1.477736,0.169413 -1.477657,0.170191 -2.831158,-0.0157 z"
       inkscape:connector-curvature="0" />
    <g
       id="g5323"
       transform="matrix(0.97184865,0,0,0.97184865,15.917999,-2.1206875)"
       style="fill:#fafafa;fill-opacity:1">
      <g
         aria-label="Docs"
         style="font-style:normal;font-variant:normal;font-weight:normal;font-stretch:normal;font-size:91.11678314px;line-height:1.25;font-family:'Fira Code';-inkscape-font-specification:'Fira Code';letter-spacing:0px;word-spacing:0px;fill:#fafafa;fill-opacity:1;stroke:none;stroke-width:3.41687894"
         id="text4882"
         transform="matrix(0.97614844,0,0,0.97614844,13.05768,2.2383063)">
        <path
           d="m 321.24215,26.370173 q 3.09797,-0.364467 7.47157,-0.637817 4.37361,-0.364467 8.56498,-0.364467 17.22107,0 25.69493,8.747211 8.56498,8.747211 8.56498,25.148232 0,17.129955 -8.74721,25.421583 -8.6561,8.291627 -25.87717,8.291627 -4.28249,0 -8.47386,-0.364467 -4.19137,-0.273351 -7.19822,-0.728934 z m 9.29391,57.859158 q 1.27563,0.182233 3.09797,0.364467 1.91345,0.09112 4.00914,0.09112 5.37589,0 9.74949,-1.184518 4.46472,-1.275635 7.65381,-4.191373 3.18909,-2.915737 4.92031,-7.836043 1.73122,-5.011423 1.73122,-12.482999 0,-6.833759 -1.73122,-11.662948 -1.73122,-4.82919 -4.92031,-7.836044 -3.09797,-3.09797 -7.47157,-4.464722 -4.37361,-1.366752 -9.65838,-1.366752 -1.73122,0 -3.82691,0.09112 -2.00457,0 -3.55355,0.27335 z"
           style="font-style:normal;font-variant:normal;font-weight:normal;font-stretch:normal;font-family:aller;-inkscape-font-specification:aller;fill:#fafafa;fill-opacity:1;stroke-width:3.41687894"
           id="path5377"
           inkscape:connector-curvature="0" />
        <path
           d="m 403.08495,92.976542 q -5.46701,0 -9.56726,-1.822336 -4.10026,-1.913452 -6.83376,-5.193656 -2.73351,-3.280205 -4.10026,-7.744927 -1.27563,-4.464722 -1.27563,-9.658379 0,-5.193657 1.27563,-9.658379 1.36675,-4.464722 4.10026,-7.744927 2.7335,-3.280204 6.83376,-5.193656 4.10025,-1.913453 9.56726,-1.913453 5.46701,0 9.56726,1.913453 4.10026,1.913452 6.83376,5.193656 2.7335,3.280205 4.00914,7.744927 1.36675,4.464722 1.36675,9.658379 0,5.193657 -1.36675,9.658379 -1.27564,4.464722 -4.00914,7.744927 -2.7335,3.280204 -6.83376,5.193656 -4.10025,1.822336 -9.56726,1.822336 z m 0,-7.198226 q 6.28706,0 9.29391,-4.555839 3.00685,-4.555839 3.00685,-12.665233 0,-8.109394 -3.00685,-12.574116 -3.00685,-4.555839 -9.29391,-4.555839 -6.28706,0 -9.29391,4.555839 -2.91574,4.464722 -2.91574,12.574116 0,8.109394 2.91574,12.665233 3.00685,4.555839 9.29391,4.555839 z"
           style="font-style:normal;font-variant:normal;font-weight:normal;font-stretch:normal;font-family:aller;-inkscape-font-specification:aller;fill:#fafafa;fill-opacity:1;stroke-width:3.41687894"
           id="path5379"
           inkscape:connector-curvature="0" />
        <path
           d="m 467.97149,83.773747 q 0.72893,1.275635 1.27563,3.189087 0.5467,1.913453 0.63782,3.918022 -5.37589,2.095686 -12.30077,2.095686 -11.66295,0 -17.58554,-6.560408 -5.92259,-6.651526 -5.92259,-17.85889 0,-5.193657 1.45787,-9.658379 1.45787,-4.464722 4.28249,-7.744927 2.91574,-3.280204 7.19823,-5.193656 4.28248,-1.913453 9.93172,-1.913453 3.82691,0 6.74265,0.455584 2.91573,0.455584 5.55812,1.457869 0,1.548985 -0.45558,3.644671 -0.36447,2.004569 -1.09341,3.553555 -4.46472,-1.548986 -10.20507,-1.548986 -7.016,0 -10.47843,4.646956 -3.46244,4.646956 -3.46244,12.300766 0,8.747211 3.91802,12.847467 3.91802,4.009138 10.75178,4.009138 2.7335,0 5.01142,-0.364467 2.36904,-0.364467 4.73808,-1.275635 z"
           style="font-style:normal;font-variant:normal;font-weight:normal;font-stretch:normal;font-family:aller;-inkscape-font-specification:aller;fill:#fafafa;fill-opacity:1;stroke-width:3.41687894"
           id="path5381"
           inkscape:connector-curvature="0" />
        <path
           d="m 479.59029,83.40928 q 2.46016,1.002284 5.37589,1.640102 3.00686,0.546701 5.92259,0.546701 2.09569,0 4.00914,-0.455584 1.91346,-0.455584 3.28021,-1.366752 1.45787,-0.911168 2.27792,-2.186803 0.91116,-1.366752 0.91116,-3.006854 0,-1.822335 -0.72893,-3.006854 -0.63782,-1.184518 -1.82233,-2.004569 -1.09341,-0.820051 -2.64239,-1.366752 -1.45787,-0.637817 -3.18909,-1.184518 l -3.18909,-1.184518 q -5.83147,-2.186803 -8.47386,-4.920306 -2.64238,-2.733504 -2.64238,-7.38046 0,-6.195941 4.3736,-9.840612 4.46472,-3.644672 13.0297,-3.644672 3.55356,0 6.92488,0.728935 3.46243,0.637817 6.0137,1.548985 -0.18223,1.822336 -0.72893,3.644671 -0.45558,1.822336 -1.18452,3.371321 -2.00457,-0.728934 -4.82919,-1.366751 -2.7335,-0.728935 -5.92259,-0.728935 -3.37132,0 -6.01371,1.184518 -2.55127,1.184519 -2.55127,4.191372 0,1.548986 0.63782,2.642387 0.63782,1.093402 1.73122,1.913453 1.0934,0.728934 2.46015,1.275635 1.45787,0.5467 3.09797,1.093401 l 4.00914,1.366752 q 2.18681,0.728934 4.10026,1.731219 2.00457,1.002284 3.37132,2.55127 1.45787,1.457868 2.27792,3.644671 0.91117,2.095686 0.91117,5.10254 0,3.371321 -1.36676,6.195941 -1.36675,2.733503 -3.91802,4.738073 -2.46015,1.913452 -6.0137,3.006854 -3.55356,1.093401 -7.83605,1.093401 -4.3736,0 -7.65381,-0.637818 -3.2802,-0.5467 -6.10482,-1.548985 0.18223,-1.822335 0.72893,-3.644671 0.63782,-1.913453 1.36675,-3.735788 z"
           style="font-style:normal;font-variant:normal;font-weight:normal;font-stretch:normal;font-family:aller;-inkscape-font-specification:aller;fill:#fafafa;fill-opacity:1;stroke-width:3.41687894"
           id="path5383"
           inkscape:connector-curvature="0" />
      </g>
      <g
         aria-label="IATec"
         style="font-style:normal;font-variant:normal;font-weight:normal;font-stretch:normal;font-size:94.7080307px;line-height:1.25;font-family:'Fira Code';-inkscape-font-specification:'Fira Code';letter-spacing:0px;word-spacing:0px;fill:#fafafa;fill-opacity:1;stroke:none;stroke-width:3.55155063"
         id="text4882-5"
         transform="matrix(0.97614844,0,0,0.97614844,2.4275233,2.2383063)">
        <path
           d="m 101.77631,92.03968 9.01761,-67.701443 h 5.78052 l -8.92512,67.701443 z"
           style="font-style:normal;font-variant:normal;font-weight:normal;font-stretch:normal;font-family:'Futura Lt BT';-inkscape-font-specification:'Futura Lt BT';fill:#fafafa;fill-opacity:1;stroke-width:3.55155063"
           id="path5386"
           inkscape:connector-curvature="0" />
        <path
           d="M 160.59888,64.940605 152.18244,35.298102 135.81201,64.940605 Z M 113.93853,92.03968 153.89348,22.719691 174.79584,92.03968 h -6.33545 l -6.42794,-22.15095 h -29.18006 l -12.48593,22.15095 z"
           style="font-style:normal;font-variant:normal;font-weight:normal;font-stretch:normal;font-family:'Futura Lt BT';-inkscape-font-specification:'Futura Lt BT';fill:#fafafa;fill-opacity:1;stroke-width:3.55155063"
           id="path5388"
           inkscape:connector-curvature="0" />
        <path
           d="m 186.95805,92.03968 8.23146,-62.337121 h -19.42255 l 0.73991,-5.364322 h 43.00706 l -0.73991,5.364322 h -17.804 l -8.13897,62.337121 z"
           style="font-style:normal;font-variant:normal;font-weight:normal;font-stretch:normal;font-family:'Futura Lt BT';-inkscape-font-specification:'Futura Lt BT';fill:#fafafa;fill-opacity:1;stroke-width:3.55155063"
           id="path5390"
           inkscape:connector-curvature="0" />
        <path
           d="m 243.79212,67.715255 q 0,-6.427938 -3.19085,-9.942494 -3.1446,-3.514556 -8.92512,-3.514556 -6.3817,0 -10.54367,3.422068 -4.16198,3.375823 -5.9655,10.034982 z m 5.17934,4.624415 h -34.35941 v 1.063616 q 0,7.399065 3.74578,11.514795 3.79202,4.069485 10.63616,4.069485 4.20821,0 7.53779,-1.89601 3.37583,-1.942255 6.01174,-5.826764 l 3.79202,3.653289 q -3.37582,4.578171 -7.63028,6.751646 -4.20822,2.173476 -9.80376,2.173476 -9.06386,0 -14.56691,-5.410567 -5.50306,-5.410566 -5.50306,-14.289444 0,-10.91362 6.19672,-17.757755 6.24296,-6.89038 16.04672,-6.89038 8.6939,0 13.45705,4.901881 4.76315,4.90188 4.76315,13.780758 0,0.832395 -0.0925,1.942255 -0.0925,1.063615 -0.23122,2.219719 z"
           style="font-style:normal;font-variant:normal;font-weight:normal;font-stretch:normal;font-family:'Futura Lt BT';-inkscape-font-specification:'Futura Lt BT';fill:#fafafa;fill-opacity:1;stroke-width:3.55155063"
           id="path5392"
           inkscape:connector-curvature="0" />
        <path
           d="m 289.48134,90.791088 q -2.91339,1.526057 -5.68804,2.265964 -2.77464,0.786151 -5.54929,0.786151 -9.48006,0 -15.21433,-5.688032 -5.73428,-5.688031 -5.73428,-14.983106 0,-10.219958 6.70541,-16.925361 6.7054,-6.751647 16.9716,-6.751647 3.93075,0 7.30658,1.063616 3.37582,1.017371 6.42794,3.144602 l -1.43357,5.179346 q -3.09836,-2.265964 -6.19672,-3.329579 -3.09836,-1.10986 -6.38169,-1.10986 -7.63029,0 -12.57841,5.22559 -4.94813,5.179345 -4.94813,13.225828 0,7.1216 4.20822,11.514795 4.20822,4.393195 11.05235,4.393195 3.05212,0 5.9655,-1.10986 2.95962,-1.156104 6.24296,-3.607044 z"
           style="font-style:normal;font-variant:normal;font-weight:normal;font-stretch:normal;font-family:'Futura Lt BT';-inkscape-font-specification:'Futura Lt BT';fill:#fafafa;fill-opacity:1;stroke-width:3.55155063"
           id="path5394"
           inkscape:connector-curvature="0" />
      </g>
    </g>
  </g>
</svg>
